<svg xmlns="http://www.w3.org/2000/svg" version="1.1" xmlns:xlink="http://www.w3.org/1999/xlink" xmlns:svgjs="http://svgjs.dev/svgjs" width="1440" height="560" preserveAspectRatio="none" viewBox="0 0 1440 560"><g mask="url(&quot;#SvgjsMask1000&quot;)" fill="none"><rect width="1440" height="560" x="0" y="0" fill="#1e3266"></rect><path d="M1464 560L0 560 L0 338.99Q48.83 315.82, 72 364.65Q81.7 302.35, 144 312.04Q195.15 243.19, 264 294.34Q326.98 285.31, 336 348.29Q363.24 303.53, 408 330.78Q444.13 246.91, 528 283.05Q570.39 253.44, 600 295.83Q653.83 277.66, 672 331.5Q701.74 289.24, 744 318.97Q765.21 268.18, 816 289.39Q881.35 282.74, 888 348.09Q913.28 301.37, 960 326.65Q1004.36 251, 1080 295.36Q1177.84 273.2, 1200 371.04Q1206.19 305.23, 1272 311.42Q1341.22 260.64, 1392 329.86Q1449.54 315.39, 1464 372.93z" fill="#182f5d"></path><path d="M1488 560L0 560 L0 353.12Q62.57 343.69, 72 406.26Q117.99 332.25, 192 378.24Q214.1 328.34, 264 350.43Q306.08 320.51, 336 362.59Q396.8 351.38, 408 412.18Q433.28 365.46, 480 390.73Q566.46 357.19, 600 443.64Q616.87 388.5, 672 405.37Q745.29 358.66, 792 431.95Q804.53 372.48, 864 385.01Q910.55 359.56, 936 406.1Q1013.66 363.76, 1056 441.42Q1091.86 357.28, 1176 393.14Q1223.33 320.47, 1296 367.79Q1392.15 343.94, 1416 440.09Q1435.51 387.6, 1488 407.1z" fill="#25467d"></path><path d="M1560 560L0 560 L0 484.76Q34.21 398.97, 120 433.17Q171.9 413.07, 192 464.97Q219.02 419.99, 264 447.01Q312.44 375.44, 384 423.88Q437.63 405.51, 456 459.15Q531.38 414.53, 576 489.91Q604.84 398.75, 696 427.6Q765.15 376.75, 816 445.91Q859.36 417.26, 888 460.62Q929.25 381.87, 1008 423.12Q1105.6 400.72, 1128 498.31Q1166.95 417.26, 1248 456.21Q1290.55 426.76, 1320 469.31Q1402.19 431.5, 1440 513.7Q1464.19 417.89, 1560 442.09z" fill="#356cb1"></path><path d="M1512 560L0 560 L0 578.84Q39.55 498.39, 120 537.95Q193.7 491.65, 240 565.36Q245.59 498.95, 312 504.54Q381.34 453.88, 432 523.22Q484.55 503.77, 504 556.32Q531.48 463.8, 624 491.27Q674.04 469.31, 696 519.36Q767.36 470.72, 816 542.07Q889.46 495.53, 936 568.98Q990.5 503.49, 1056 557.99Q1079.83 509.82, 1128 533.64Q1181.29 514.93, 1200 568.23Q1204.72 500.95, 1272 505.66Q1337.61 451.26, 1392 516.87Q1479.24 484.11, 1512 571.35z" fill="white"></path></g><defs><mask id="SvgjsMask1000"><rect width="1440" height="560" fill="#ffffff"></rect></mask></defs></svg>