<?xml version="1.0"?>
<svg version="1.1" xmlns="http://www.w3.org/2000/svg" width="250" height="60" style=""><path fill="#00328f" d="M31.016,39.24q-1.4,0-2.604-0.224q0.392,1.232,1.652,5.572q0.392,1.26,1.232,2.548q1.148,1.652,2.128,1.652q1.176,0,1.96-2.38q0.14-0.56,0.294-0.56t0.224,0.322t0.07,0.434q0,0.7-0.784,1.792q-1.036,1.54-2.268,1.54t-2.268-1.232t-2.03-4.494t-0.994-4.158q0-0.14,0.028-0.224q-3.36,4.452-4.816,5.88q-3.248,3.164-6.636,3.164q-2.38,0-2.38-1.792q0-0.896,0.56-1.974t1.372-1.89t1.428-0.812q0.112,0,0.112,0.056q0,0.14-0.7,0.7t-1.344,1.582t-0.644,1.862q0,1.484,1.988,1.484q3.724,0,10.248-8.736q0.364-0.476,0.616-0.672l-0.448-0.168q-0.364,0.14-0.588,0.14q-0.588,0-0.588-0.476q0-0.644,0.868-0.84q0.112-0.028,0.196-0.028q0.504,0,1.176,0.504q2.464-2.744,2.52-2.8q2.044-2.1,2.758-2.1t0.714,0.616q0,0.28-0.126,0.532t-0.294,0.252q-0.168,0.056-0.168-0.168q0-0.112,0.168-0.336q0.028-0.392-0.252-0.392q-0.896,0-4.34,4.76q0.84,0.056,1.4,0.056q6.496,0,8.12-3.36q0.336-0.728,0.336-1.344q0-1.232-1.12-2.128q-1.792-1.456-5.824-1.456t-8.232,2.044q-5.096,2.492-5.096,5.852q0,1.092,1.372,1.092t2.912-1.008t2.072-1.988q0.196-0.364,0.378-0.364t0.098,0.224q-0.532,1.568-2.366,2.674t-3.822,1.106t-1.988-1.26l0-0.196q0.42-3.668,4.494-6.23t9.814-2.562q5.348,0,7.588,1.848q1.344,1.12,1.344,2.632q0,0.644-0.308,1.4q-0.868,2.044-3.556,3.038t-5.656,0.994z M46.58876,38.428l0.392-0.084q0.308,0,0.588,0.252t0.28,0.392t-1.736,2.702t-1.736,3.57q0,0.084,0.028,0.168q0.14,0.644,0.616,0.644q1.456,0,5.32-4.816q0.084-0.112,0.196-0.112t0.112,0.21t-0.252,0.546q-3.584,4.788-5.46,4.788q-0.252,0-0.476-0.084q-1.232-0.476-1.232-1.848q0-0.476,0.112-0.952l-1.736,1.68q-1.652,1.456-2.394,1.456t-1.414-0.476q-0.756-0.56-0.756-1.484q0-2.044,2.856-4.886t5.236-2.842q0.924,0,1.232,0.644q0.084,0.224,0.14,0.378t0.084,0.154z M38.21676,45.316q0,1.008,0.7,1.008q1.624,0,4.424-3.556l2.968-4.088q-0.224-0.392-0.728-0.392q-1.708,0-4.536,2.646t-2.828,4.382z M54.57352,37.952q0.756,0,0.756,0.588q0,0.168-0.084,0.336q-2.52,3.5-3.024,5.292q6.524-6.524,7.924-6.524q0.14-0.028,0.252-0.028q0.784,0,0.784,0.7q0,0.14-0.056,0.28t-1.12,1.512q-1.232,1.456-2.086,2.8t-0.854,2.24t0.392,0.896q1.232,0,4.284-3.388q0.056-0.056,0.196-0.252q0.42-0.504,0.504-0.504t0.084,0.28t-0.392,0.728q-3.472,3.948-4.928,3.948q-1.372,0-1.372-1.512t1.12-3.472l1.792-2.912q-1.904,1.4-3.388,3.066t-2.702,3.234t-1.414,1.568q-0.42,0-0.658-0.35t-0.238-0.868t0.364-1.386t0.924-2.1l-1.68,1.764q-0.616,0.616-0.77,0.616t-0.154-0.182t0.224-0.406q1.036-1.036,1.792-1.988q0.728-0.952,2.996-3.64q0.252-0.336,0.532-0.336z M71.77028,38.316q3.136-5.096,4.368-5.096q0.196,0,0.546,0.126t0.35,0.378q0,0.14-0.14,0.364q-2.24,2.744-3.332,4.116q-3.304,4.172-3.64,5.992q-0.084,0.392-0.084,0.784q0,1.26,1.036,1.26q2.072,0,5.404-3.836q0.28-0.28,0.476-0.322t0.196,0.098t-0.168,0.336q-3.248,3.892-5.768,4.34q-0.14,0.028-0.392,0.028q-0.868,0-1.302-0.602t-0.434-1.302q0-0.784,0.308-1.736l-2.268,2.268q-1.54,1.428-2.422,1.428t-1.47-0.476q-0.7-0.532-0.7-1.484q0-2.044,2.856-4.886t5.236-2.842q0.784,0,1.092,0.42q0.112,0.14,0.252,0.644z M63.51028,45.316q0,1.008,0.7,1.008q1.204,0,4.004-3.304q0.504-0.588,3.36-4.396q-0.196-0.336-0.672-0.336q-1.736,0-4.564,2.646t-2.828,4.382z M84.20704,40.864q0,0.98-1.876,3.276q-2.212,2.716-3.78,2.716l-0.448,0q-0.728,0-1.148-0.756q-0.336-0.532-0.336-1.176q0-1.68,2.45-4.718t3.962-3.038q1.428,0,1.428,1.512q0,0.392-0.14,1.008q0.028,0.084,0.532,0.084t1.54-0.532q-0.028,0.476-2.212,1.372q0.028,0.112,0.028,0.252z M82.38704,39.408q-0.952,0-2.702,2.24t-1.75,3.304t0.672,1.064q1.204,0,3.052-2.184t1.848-3.136q-0.448-0.252-1.12-1.288z M99.3878,46.464q-1.904,0-1.904-1.764q0-1.008,0.896-2.758t1.876-2.954q-1.736,0.84-4.004,3.038t-3.164,4.606q-0.14,0.224-0.476,0.224q-0.672,0-0.672-0.756q0.28-1.54,1.26-3.528q0.308-0.644,1.82-3.752q-2.184,1.428-3.71,3.066t-2.828,3.29t-1.47,1.652q-0.364,0-0.63-0.336t-0.266-0.672q0-0.504,1.456-3.696l-1.68,1.764q-0.616,0.616-0.77,0.616t-0.154-0.182t0.224-0.406q1.036-1.036,1.848-2.072t2.688-3.696q0.308-0.42,0.868-0.42t0.56,0.532q0,0.196-1.484,2.73t-1.652,3.178q1.148-1.26,3.444-3.388q3.444-3.192,4.536-3.192q0.336,0,0.616,0.196t0.28,0.434t-1.092,2.114q-1.064,1.932-1.176,2.296q3.108-2.604,3.108-2.632q2.632-2.044,3.78-2.044q0.336,0,0.63,0.21t0.294,0.49q0,0.056-1.82,2.366t-2.044,3.794q-0.056,0.504,0.196,0.756t0.91,0.252t1.932-0.91t2.59-2.45q0.504-0.56,0.686-0.56t0.182,0.14q0,0.196-0.252,0.448q-1.372,1.652-2.954,2.814t-2.478,1.162z"/><path fill="#00328f" d="M127.63256,46.044q0,1.876,1.876,1.876q2.52,0,6.076-3.64q3.22-3.248,4.914-6.622t1.694-5.138q0-0.28-0.056-0.56q-0.616,0-1.26-0.644l0,0.028q-0.42-0.336-0.42-0.686t0.28-0.574t0.728-0.224t0.63,0.35t0.462,0.63t0.252,0.392q0.168,0.252,0.518,0.252t0.798-0.336t0.714-0.336t0.266,0.168q0,0.308-0.532,0.588q-0.28,0.224-0.672,0.252l-0.896,0q0.336,1.148,0.336,1.652q0,2.24-2.142,5.824t-5.502,6.356q-3.388,2.856-6.146,2.856t-2.758-2.688q0-2.128,1.792-6.076l2.016-4.396l-2.744,2.128q-1.288,1.064-2.618,2.338t-4.634,5.25l-3.248,3.976q-0.784,0.896-1.4,0.896q-0.476,0-0.476-0.616t0.504-1.596l5.404-7.784q4.9-7.196,4.9-9.128q0-1.064-1.96-1.064q-2.38,0-6.636,2.912q-2.296,1.568-4.032,3.934t-1.736,3.92t2.072,1.554q1.932,0,3.976-1.792q0.728-0.616,0.84-0.616t0.084,0.196q-0.308,1.064-2.282,2.03t-3.486,0.966q-0.392,0-0.532-0.028l-0.028,0q-2.24-0.476-2.24-2.212t1.932-4.172q3.416-4.312,8.792-6.412q2.772-1.064,4.564-1.064q2.212,0,2.212,1.456q0,3.024-7.616,13.132q-2.548,3.388-2.576,3.388q0.084,0,2.926-3.164t5.39-5.404q0.98-0.868,3.388-3.192q1.26-1.176,2.716-2.128q0.364-0.224,1.05-0.224t0.938,0.392q-2.576,3.192-4.494,7.154t-1.918,5.67z M143.90056,31.82l0.028,0l-0.028,0z M152.22132,38.428l0.392-0.084q0.308,0,0.588,0.252t0.28,0.392t-1.736,2.702t-1.736,3.57q0,0.084,0.028,0.168q0.14,0.644,0.616,0.644q1.456,0,5.32-4.816q0.084-0.112,0.196-0.112t0.112,0.21t-0.252,0.546q-3.584,4.788-5.46,4.788q-0.252,0-0.476-0.084q-1.232-0.476-1.232-1.848q0-0.476,0.112-0.952l-1.736,1.68q-1.652,1.456-2.394,1.456t-1.414-0.476q-0.756-0.56-0.756-1.484q0-2.044,2.856-4.886t5.236-2.842q0.924,0,1.232,0.644q0.084,0.224,0.14,0.378t0.084,0.154z M143.84932,45.316q0,1.008,0.7,1.008q1.624,0,4.424-3.556l2.968-4.088q-0.224-0.392-0.728-0.392q-1.708,0-4.536,2.646t-2.828,4.382z M160.20608,37.952q0.756,0,0.756,0.588q0,0.168-0.084,0.336q-2.52,3.5-3.024,5.292q6.524-6.524,7.924-6.524q0.14-0.028,0.252-0.028q0.784,0,0.784,0.7q0,0.14-0.056,0.28t-1.12,1.512q-1.232,1.456-2.086,2.8t-0.854,2.24t0.392,0.896q1.232,0,4.284-3.388q0.056-0.056,0.196-0.252q0.42-0.504,0.504-0.504t0.084,0.28t-0.392,0.728q-3.472,3.948-4.928,3.948q-1.372,0-1.372-1.512t1.12-3.472l1.792-2.912q-1.904,1.4-3.388,3.066t-2.702,3.234t-1.414,1.568q-0.42,0-0.658-0.35t-0.238-0.868t0.364-1.386t0.924-2.1l-1.68,1.764q-0.616,0.616-0.77,0.616t-0.154-0.182t0.224-0.406q1.036-1.036,1.792-1.988q0.728-0.952,2.996-3.64q0.252-0.336,0.532-0.336z M177.40284,38.316q3.136-5.096,4.368-5.096q0.196,0,0.546,0.126t0.35,0.378q0,0.14-0.14,0.364q-2.24,2.744-3.332,4.116q-3.304,4.172-3.64,5.992q-0.084,0.392-0.084,0.784q0,1.26,1.036,1.26q2.072,0,5.404-3.836q0.28-0.28,0.476-0.322t0.196,0.098t-0.168,0.336q-3.248,3.892-5.768,4.34q-0.14,0.028-0.392,0.028q-0.868,0-1.302-0.602t-0.434-1.302q0-0.784,0.308-1.736l-2.268,2.268q-1.54,1.428-2.422,1.428t-1.47-0.476q-0.7-0.532-0.7-1.484q0-2.044,2.856-4.886t5.236-2.842q0.784,0,1.092,0.42q0.112,0.14,0.252,0.644z M169.14284,45.316q0,1.008,0.7,1.008q1.204,0,4.004-3.304q0.504-0.588,3.36-4.396q-0.196-0.336-0.672-0.336q-1.736,0-4.564,2.646t-2.828,4.382z M183.9596,47.164q-0.308,0-0.56-0.084q-1.792-0.504-1.792-2.016q0-1.96,2.464-4.536t4.424-2.576q0.644,0,1.05,0.35t0.406,0.854q0,1.568-2.366,2.996t-3.85,1.428q-0.224,0-0.392-0.056q-0.42,0.756-0.42,1.596q0,1.456,1.386,1.456t3.598-1.876q1.708-1.372,2.912-2.912q0.252-0.336,0.434-0.336t0.182,0.168t-0.224,0.476q-1.512,1.988-3.64,3.528t-3.612,1.54z M189.2516,39.1q0-0.336-0.714-0.336t-2.03,1.092q-1.764,1.456-2.744,3.052q0.168,0.056,0.364,0.056q1.064,0,2.842-1.134t2.226-2.478q0.056-0.14,0.056-0.252z M196.67636,46.94q-2.1,0-2.1-2.324q0-1.176,0.616-2.576t1.344-2.352q-0.14,0.028-0.364,0.028q-0.672,0-1.12-0.952l-2.072,2.688q-1.736,2.156-2.016,2.156q-0.14,0-0.14-0.112q0-0.28,0.476-0.812q2.436-2.828,3.444-4.788q0.644-2.436,1.624-2.436q0.644,0,0.644,0.56t-0.7,1.428l-0.672,0.896q0,0.588,0.868,0.588q0.504,0,1.12-0.364l0.728-0.448q0.056-0.028,0.28-0.028t0.476,0.28t0.168,0.504l-1.932,2.436q-1.792,2.296-1.792,3.626t1.232,1.33q1.288,0,3.164-1.372q1.12-0.812,2.044-1.82q0.868-1.008,0.952-1.008q0.196,0,0.196,0.21t-0.252,0.49l-0.896,1.008q-0.756,0.784-1.68,1.512q-2.212,1.652-3.64,1.652z M204.66112,47.164q-0.308,0-0.56-0.084q-1.792-0.504-1.792-2.016q0-1.96,2.464-4.536t4.424-2.576q0.644,0,1.05,0.35t0.406,0.854q0,1.568-2.366,2.996t-3.85,1.428q-0.224,0-0.392-0.056q-0.42,0.756-0.42,1.596q0,1.456,1.386,1.456t3.598-1.876q1.708-1.372,2.912-2.912q0.252-0.336,0.434-0.336t0.182,0.168t-0.224,0.476q-1.512,1.988-3.64,3.528t-3.612,1.54z M209.95312,39.1q0-0.336-0.714-0.336t-2.03,1.092q-1.764,1.456-2.744,3.052q0.168,0.056,0.364,0.056q1.064,0,2.842-1.134t2.226-2.478q0.056-0.14,0.056-0.252z M217.37788,46.94q-2.1,0-2.1-2.324q0-1.176,0.616-2.576t1.344-2.352q-0.14,0.028-0.364,0.028q-0.672,0-1.12-0.952l-2.072,2.688q-1.736,2.156-2.016,2.156q-0.14,0-0.14-0.112q0-0.28,0.476-0.812q2.436-2.828,3.444-4.788q0.644-2.436,1.624-2.436q0.644,0,0.644,0.56t-0.7,1.428l-0.672,0.896q0,0.588,0.868,0.588q0.504,0,1.12-0.364l0.728-0.448q0.056-0.028,0.28-0.028t0.476,0.28t0.168,0.504l-1.932,2.436q-1.792,2.296-1.792,3.626t1.232,1.33q1.288,0,3.164-1.372q1.12-0.812,2.044-1.82q0.868-1.008,0.952-1.008q0.196,0,0.196,0.21t-0.252,0.49l-0.896,1.008q-0.756,0.784-1.68,1.512q-2.212,1.652-3.64,1.652z"/></svg>
